<?xml version="1.0" encoding="UTF-8"?>
<svg id="_图层_1" data-name="图层 1" xmlns="http://www.w3.org/2000/svg" xmlns:xlink="http://www.w3.org/1999/xlink" viewBox="0 0 149.48 158.54">
  <defs>
    <style>
      .cls-1, .cls-2 {
        fill: #fff;
      }

      .cls-3 {
        mask: url(#mask);
      }

      .cls-2 {
        fill-rule: evenodd;
      }

      .cls-4 {
        fill: #ff5c00;
      }
    </style>
    <mask id="mask" x="0" y="0" width="149.48" height="158.54" maskUnits="userSpaceOnUse">
      <g id="mask0_54_296" data-name="mask0 54 296">
        <path class="cls-2" d="M144.08,52.2c0-1.7,0-3.41,0-5.11,0-1.44-.03-2.87-.06-4.31-.08-3.13-.27-6.28-.83-9.38-.56-3.14-1.49-6.06-2.94-8.91-1.43-2.8-3.29-5.37-5.52-7.59-2.22-2.22-4.79-4.09-7.59-5.51-2.85-1.45-5.78-2.37-8.92-2.94-3.09-.56-6.25-.74-9.38-.82-1.44-.04-2.87-.06-4.31-.06-1.71-.01-3.41,0-5.12,0l-19.8-.07h-14.81l-19.45.07c-1.71,0-3.42,0-5.13,0-1.44,0-2.88.03-4.32.06-3.14.08-6.3.27-9.4.82-3.15.56-6.07,1.48-8.93,2.94-2.81,1.43-5.38,3.29-7.61,5.51-2.23,2.22-4.1,4.79-5.53,7.59-1.46,2.85-2.38,5.77-2.94,8.91-.56,3.09-.74,6.25-.83,9.37-.04,1.44-.06,2.87-.06,4.31-.01,1.7-.1,3.82-.1,5.53v19.18s0,14.97,0,14.97l.09,19.59c0,1.71,0,3.41,0,5.12,0,1.44.03,2.88.06,4.31.08,3.13.27,6.29.83,9.39.57,3.14,1.49,6.07,2.94,8.92,1.43,2.81,3.3,5.37,5.53,7.6,2.23,2.23,4.8,4.09,7.61,5.52,2.86,1.45,5.79,2.38,8.94,2.94,3.1.56,6.26.74,9.39.83,1.44.04,2.88.06,4.32.06,1.71.01,3.42,0,5.13,0h19.62s14.84,0,14.84,0h19.59c1.71,0,3.41,0,5.12-.01,1.44,0,2.87-.02,4.31-.06,3.13-.08,6.29-.27,9.38-.83,3.14-.56,6.06-1.49,8.91-2.94,2.8-1.43,5.37-3.29,7.59-5.52,2.22-2.22,4.09-4.79,5.51-7.6,1.45-2.86,2.37-5.78,2.94-8.93.55-3.1.74-6.25.82-9.38.04-1.44.06-2.87.06-4.31.01-1.71,0-3.41,0-5.12,0,0,0-19.24,0-19.59v-14.98c0-.26,0-19.58,0-19.58Z"/>
      </g>
    </mask>
  </defs>
  <g class="cls-3">
    <g>
      <rect class="cls-4" width="149.48" height="158.54"/>
      <path class="cls-1" d="M103.19,43.44h-50.03c-6.05,0-10.95,4.9-10.95,10.94s4.9,10.94,10.95,10.94h50.03c6.05,0,10.95-4.9,10.95-10.94s-4.9-10.94-10.95-10.94Z"/>
      <path class="cls-1" d="M76.52,71.89h-33.34c-6.05,0-10.95,4.9-10.95,10.94s4.9,10.94,10.95,10.94h33.34c6.05,0,10.95-4.9,10.95-10.94s-4.9-10.94-10.95-10.94Z"/>
      <path class="cls-1" d="M79.75,111.32c0-6.04-4.9-10.94-10.95-10.94s-10.95,4.9-10.95,10.94,4.9,10.94,10.95,10.94,10.95-4.9,10.95-10.94Z"/>
    </g>
  </g>
</svg>